<?xml version="1.0" encoding="utf-8"?>
<!-- Generator: Adobe Illustrator 24.2.3, SVG Export Plug-In . SVG Version: 6.00 Build 0)  -->
<svg version="1.1" id="Capa_1" xmlns="http://www.w3.org/2000/svg" xmlns:xlink="http://www.w3.org/1999/xlink" x="0px" y="0px"
	 viewBox="0 0 247.2 240.2" style="enable-background:new 0 0 247.2 240.2;" xml:space="preserve">
<style type="text/css">
	.st0{clip-path:url(#SVGID_2_);}
	.st1{clip-path:url(#SVGID_4_);}
	.st2{clip-path:url(#SVGID_6_);}
	.st3{clip-path:url(#SVGID_8_);}
	.st4{clip-path:url(#SVGID_10_);}
</style>
<g>
	<g>
		<g>
			<defs>
				<path id="SVGID_1_" d="M246.6,120.1c0,66.1-55.1,119.7-123,119.7s-123-53.6-123-119.7C0.6,54,55.6,0.4,123.6,0.4
					C191.6,0.4,246.6,54,246.6,120.1"/>
			</defs>
			<clipPath id="SVGID_2_">
				<use xlink:href="#SVGID_1_"  style="overflow:visible;"/>
			</clipPath>
			<g class="st0">
				<g>
					<defs>
						<path id="SVGID_3_" d="M123.6,0.4C55.6,0.4,0.6,54,0.6,120.1s55.1,119.7,123,119.7s123-53.6,123-119.7S191.6,0.4,123.6,0.4"/>
					</defs>
					<clipPath id="SVGID_4_">
						<use xlink:href="#SVGID_3_"  style="overflow:visible;"/>
					</clipPath>
					<g class="st1">
						
							<image style="overflow:visible;enable-background:new    ;" width="742" height="1004" xlink:href="FC0E2793.jpeg"  transform="matrix(0.2381 0 0 0.2381 35.28 0.6142)">
						</image>
					</g>
				</g>
				<g>
					<defs>
						<path id="SVGID_5_" d="M123.6,0.4C55.6,0.4,0.6,54,0.6,120.1s55.1,119.7,123,119.7s123-53.6,123-119.7S191.6,0.4,123.6,0.4"/>
					</defs>
					<clipPath id="SVGID_6_">
						<use xlink:href="#SVGID_5_"  style="overflow:visible;"/>
					</clipPath>
					<g class="st2">
						
							<image style="overflow:visible;enable-background:new    ;" width="154" height="721" xlink:href="FC0E2791.jpeg"  transform="matrix(0.2322 0 0 0.2322 0 36.4091)">
						</image>
					</g>
				</g>
				<g>
					<defs>
						<path id="SVGID_7_" d="M123.6,0.4C55.6,0.4,0.6,54,0.6,120.1s55.1,119.7,123,119.7s123-53.6,123-119.7S191.6,0.4,123.6,0.4"/>
					</defs>
					<clipPath id="SVGID_8_">
						<use xlink:href="#SVGID_7_"  style="overflow:visible;"/>
					</clipPath>
					<g class="st3">
						
							<image style="overflow:visible;enable-background:new    ;" width="154" height="721" xlink:href="FC0E2797.jpeg"  transform="matrix(0.2322 0 0 0.2322 211.44 36.4091)">
						</image>
					</g>
				</g>
			</g>
		</g>
	</g>
</g>
<g>
	<g>
		<defs>
			<path id="SVGID_9_" d="M246.6,120.1c0,66.3-55.2,120.1-123.3,120.1C55.2,240.2,0,186.5,0,120.1S55.2,0,123.3,0
				C191.4,0,246.6,53.8,246.6,120.1"/>
		</defs>
		<clipPath id="SVGID_10_">
			<use xlink:href="#SVGID_9_"  style="overflow:visible;"/>
		</clipPath>
		<g class="st4">
			<defs>
				<path id="SVGID_11_" d="M123.1,0L123.1,0C55,0.2,0,53.9,0,120.1c0,66.3,55.2,120.1,123.3,120.1c68.1,0,123.3-53.8,123.3-120.1
					c0-66.2-55-119.9-123-120.1"/>
			</defs>
			<clipPath id="SVGID_12_">
				<use xlink:href="#SVGID_11_"  style="overflow:visible;"/>
			</clipPath>
			<g style="clip-path:url(#SVGID_12_);">
				
					<image style="overflow:visible;" width="427" height="401" xlink:href="FC0E2791.jpg"  transform="matrix(0.5798 0 0 0.6021 -0.5108 0)">
				</image>
			</g>
		</g>
	</g>
</g>
</svg>
